DataRate=1000.000000
DataType=double
version=3
OpenSimVersion=4.3-2021-08-27-4bc7ad9
endheader
time	f1_1	f1_2	f1_3	p1_1	p1_2	p1_3	m1_1	m1_2	m1_3	f2_1	f2_2	f2_3	p2_1	p2_2	p2_3	m2_1	m2_2	m2_3	f3_1	f3_2	f3_3	p3_1	p3_2	p3_3	m3_1	m3_2	m3_3
0.755	-0.9163109585133241	-0.8127337958862849	3.479697710853713	14.45976257324219	-321.9847340583801	-1.820896983146667	-155.5191272370511	-973.2539499839459	152.3868476454587	1.686941232764881	-1.955668987568784	-0.483947053993942	-187.90687251091	287.4620535373688	-5.94753485918045	306.6200827233221	-13.52656021256377	-185.8395706565748	57.52079126526316	-2.396664497607225	107.5805403299329	213.2717213630676	287.216891169548	0.05869996547698975	-4485.07533472127	22908.27101243249	-5006.139308173628
0.756	-0.7822200468355038	-0.9198609876564672	3.297185218813841	14.45976257324219	-321.9847340583801	-1.820896983146667	-200.9725091987931	-1017.183391623336	32.36145590001072	1.651010886403085	-2.308829540409616	-0.00694300748085393	-187.90687251091	287.4620535373688	-5.94753485918045	64.91303797947569	44.99778576008719	-165.9313755138066	57.76479344332687	-2.437595212470838	107.9750716806134	213.2717213630676	287.216891169548	0.05869996547698975	-4502.175492468866	23038.66901795875	-5034.78494205105
0.757	-0.7824086489605249	-0.8979019560799548	2.94834835236815	14.45976257324219	-321.9847340583801	-1.820896983146667	-200.3449061004372	-911.1602388842576	76.29464538794886	1.384609875110642	-1.839012050625711	2.139995081836944	-187.90687251091	287.4620535373688	-5.94753485918045	-147.3981438025247	-64.90467543937176	-88.37163860256173	57.92928935732485	-3.472995673797013	108.1346751071721	213.2717213630676	287.216891169548	0.05869996547698975	-4765.478329474256	23069.18024862877	-4986.670703417147
0.758	-0.6665274612385524	-0.9241958104783637	3.567538225179673	14.45976257324219	-321.9847340583801	-1.820896983146667	-294.8320630154963	-1099.750675678443	138.8219770960422	1.881810719536284	-2.229599867014367	-0.8821401675856039	-187.90687251091	287.4620535373688	-5.94753485918045	-200.7417987582907	-54.40178905805439	-167.9879498906081	58.34617113053292	-3.472927401294564	107.9834043517218	213.2717213630676	287.216891169548	0.05869996547698975	-4733.586375834344	23239.57033149557	-5039.589855832389
0.759	-0.8954410239646389	-0.7620095900474024	2.861127083583972	14.45976257324219	-321.9847340583801	-1.820896983146667	-271.9641989674816	-782.6788003675113	93.31886482478153	1.218412914002736	-1.447296977487406	0.153822409601805	-187.90687251091	287.4620535373688	-5.94753485918045	-237.900571849796	29.07579229918803	-113.1763247564369	59.25125501901071	-3.968972926261852	108.6215684932467	213.2717213630676	287.216891169548	0.05869996547698975	-4629.667495697779	23257.67242869422	-5005.092162969437
0.76	-0.7565158955048799	-0.9925179053303762	3.739626688421317	14.45976257324219	-321.9847340583801	-1.820896983146667	-173.1802612468879	-975.1176035907264	75.41065840378181	1.962085870130778	-2.033200710652036	-0.2466826246991843	-187.90687251091	287.4620535373688	-5.94753485918045	127.6162072904761	56.91616686487495	-111.3592178424109	58.57669755180904	-4.341340755135017	109.4744118745674	213.2717213630676	287.216891169548	0.05869996547698975	-4787.412250164498	23445.22932233301	-4919.302953733303
0.761	-0.8920412511520448	-0.9269339777837795	3.567747651649569	14.45976257324219	-321.9847340583801	-1.820896983146667	-172.1707813448212	-825.8180926132987	144.2934334208394	1.373736394634434	-1.995944863444169	-0.5621000954793086	-187.90687251091	287.4620535373688	-5.94753485918045	129.4290591492476	203.0573962513356	-67.65587631555121	59.35818087312895	-4.588972761340796	110.03249874853	213.2717213630676	287.216891169548	0.05869996547698975	-4845.698469577842	23496.68568329069	-4852.05228936991
0.762	-0.7578871797220783	-0.6742005931461784	3.125159033024294	14.45976257324219	-321.9847340583801	-1.820896983146667	-194.082207001023	-889.6732341725627	100.7401243207957	1.373545830000285	-1.839039797862346	-0.4826261729698594	-187.90687251091	287.4620535373688	-5.94753485918045	26.96969270487681	135.9553296375112	-42.03741403117967	59.38814423450007	-5.333729835683474	110.972906581135	213.2717213630676	287.216891169548	0.05869996547698975	-4752.128813998062	23626.50779767307	-4829.377182537808
0.763	-0.4840426779823888	-0.7647070527308572	3.387178882040921	14.45976257324219	-321.9847340583801	-1.820896983146667	-240.353387549839	-954.522548021098	59.17636393720339	1.023680992388762	-2.11479890518464	-0.1632481259361917	-187.90687251091	287.4620535373688	-5.94753485918045	-274.1006624213476	58.59243252472832	-134.7293213739333	59.98096563265448	-5.45858170370584	110.0412034311741	213.2717213630676	287.216891169548	0.05869996547698975	-4788.824357384105	23508.18197618326	-4811.529960309804
0.764	-0.5996706723170738	-0.8091962220040536	3.301460861260916	14.45976257324219	-321.9847340583801	-1.820896983146667	-245.0294536561621	-1122.078850127627	103.1956541034919	1.487305553718978	-1.760202765773482	-1.277854786344607	-187.90687251091	287.4620535373688	-5.94753485918045	94.65349202853329	129.8438901467767	-78.39126507780607	60.5913839679687	-5.415956926921777	110.9882337489224	213.2717213630676	287.216891169548	0.05869996547698975	-4850.394745846654	23726.2602706154	-4766.046629033664
0.765	-0.7786725117339987	-0.9936600464348558	3.478276537905215	14.45976257324219	-321.9847340583801	-1.820896983146667	-172.4801830007928	-805.8499880362784	110.3831385009886	1.838656196705657	-1.327534250898646	-1.120392054079432	-187.90687251091	287.4620535373688	-5.94753485918045	244.7115567646524	111.3319773864991	-188.6373751510991	60.79310686019009	-5.871089289301384	111.4608811312509	213.2717213630676	287.216891169548	0.05869996547698975	-4933.59180654982	23924.24008266938	-4661.07978544812
0.766	-0.7369951288934233	-0.9198357384602532	3.035352088002888	14.45976257324219	-321.9847340583801	-1.820896983146667	-231.0844332914395	-953.4418850631076	59.53190985986406	1.801838357807517	-1.916055477003548	-1.04075569158693	-187.90687251091	287.4620535373688	-5.94753485918045	38.97962893529311	84.14380171538883	0.09620359316485808	60.42959312129287	-6.158899259289394	113.9614330319046	213.2717213630676	287.216891169548	0.05869996547698975	-4883.775586362981	24107.31261437874	-4619.164219956703
0.767	-0.6236359727018524	-0.8080886265150982	2.683581391597872	14.45976257324219	-321.9847340583801	-1.820896983146667	-59.76592544883661	-892.8021602183911	57.33383928753292	2.189329029042562	-1.993206501626853	-1.996087007024299	-187.90687251091	287.4620535373688	-5.94753485918045	129.6970851573814	-12.9750813743855	-175.7391743139909	60.92982826977691	-6.904443206367587	113.8119114024926	213.2717213630676	287.216891169548	0.05869996547698975	-4822.072270468001	24142.85301149068	-4548.733526260099
0.768	-0.7821882569551459	-1.080198235715873	3.216176837353248	14.45976257324219	-321.9847340583801	-1.820896983146667	-299.6043035944778	-1057.065239713043	139.9063223809129	1.290996115956267	-1.956992030083724	-1.59492366842764	-187.90687251091	287.4620535373688	-5.94753485918045	147.0365295886435	255.0269114865262	-122.5675190984817	60.76897970591985	-7.19487171408583	113.4187550452226	213.2717213630676	287.216891169548	0.05869996547698975	-4974.207516465958	24196.63744623218	-4625.446158798145
0.769	-0.6429444560781852	-0.9254050635013455	3.566035582372261	14.45976257324219	-321.9847340583801	-1.820896983146667	-186.8619454594657	-996.1288836267872	110.9676708778597	1.723791796880106	-1.877090821703697	-0.9609520650224255	-187.90687251091	287.4620535373688	-5.94753485918045	215.648188403267	-15.94436505370492	-149.3873835624819	61.26889823543895	-7.319036129223884	113.2686528911339	213.2717213630676	287.216891169548	0.05869996547698975	-5010.692156387265	24401.11760846473	-4637.645294278809
0.77	-0.6661349987707244	-0.9463892066807832	3.215363517651036	14.45976257324219	-321.9847340583801	-1.820896983146667	-277.3591743202447	-847.1112125219979	121.3424075287697	1.491913786375468	-2.034775863768151	-0.403648665924261	-187.90687251091	287.4620535373688	-5.94753485918045	32.03566966337103	5.654211920416005	-201.9209847081996	61.42113862667731	-7.649329291995725	114.3667787139871	213.2717213630676	287.216891169548	0.05869996547698975	-5369.686898064432	24394.01365484959	-4585.819898424399
0.771	-0.8497557578741914	-0.9899522016242125	3.562292114015807	14.45976257324219	-321.9847340583801	-1.820896983146667	-143.9349839121383	-1080.619389376872	57.59373860855236	1.376523547031318	-2.427427974031017	-0.2442081257147593	-187.90687251091	287.4620535373688	-5.94753485918045	106.0321013331205	107.6099018003915	-166.286540414426	62.12361034647591	-7.897296290953578	114.6107560781759	213.2717213630676	287.216891169548	0.05869996547698975	-5240.923554169921	24505.46334749907	-4456.515309801503
0.772	-0.8023260806861099	-0.9685944780433339	3.826271522267974	14.45976257324219	-321.9847340583801	-1.820896983146667	-218.232814210503	-1016.651324444449	58.15342164518151	1.557739545621325	-1.328469958237339	-2.788177443390741	-187.90687251091	287.4620535373688	-5.94753485918045	-25.79400157149422	153.8259701821702	-223.5650385590472	62.4033757120808	-8.3934452401658	115.475819717591	213.2717213630676	287.216891169548	0.05869996547698975	-5090.720316526101	24653.09228333197	-4373.481195404424
0.773	-0.8262108709249844	-0.7192485474117389	2.950022392206454	14.45976257324219	-321.9847340583801	-1.820896983146667	-194.9135194698145	-783.7836910882784	109.5736652717139	2.15115073776643	-1.875656079586197	-1.678028050275548	-187.90687251091	287.4620535373688	-5.94753485918045	199.5550395839001	-29.70194612315889	-207.2741690980471	62.76326847341271	-9.1378840223349	116.5769683554046	213.2717213630676	287.216891169548	0.05869996547698975	-5277.310541580177	24787.49514648911	-4480.493551510245
0.774	-0.6911648979447337	-1.012771245321102	3.302307925668849	14.45976257324219	-321.9847340583801	-1.820896983146667	-221.3197699463237	-1122.061578927913	112.5104253296082	1.728327674812622	-2.23011687471569	-0.1662195915357015	-187.90687251091	287.4620535373688	-5.94753485918045	-122.4413472059093	173.6618502087768	-265.280884581254	63.21858114294444	-8.971873477492611	116.660857628367	213.2717213630676	287.216891169548	0.05869996547698975	-5222.898137655626	24852.8467819302	-4521.361739373611
0.775	-0.9859675884731341	-0.9231465487331421	3.563852184157652	14.45976257324219	-321.9847340583801	-1.820896983146667	-128.1562179673855	-1058.47343861588	91.24862499498398	1.571169864954786	-2.034511206081192	-0.1655586687663829	-187.90687251091	287.4620535373688	-5.94753485918045	302.2831343376756	50.0188677595682	-159.1679753337308	63.13585080367055	-9.469020068850647	116.6602751552749	213.2717213630676	287.216891169548	0.05869996547698975	-5340.627996810861	25081.90206360554	-4300.793567483965
